<svg id="Layer_1" data-name="Layer 1" xmlns="http://www.w3.org/2000/svg" viewBox="0 0 32 32"><defs><style>.cls-1{fill:#fff;}</style></defs><path class="cls-1" d="M25.78,13.34h-.25V10A9.53,9.53,0,0,0,6.47,10v3.31H6.22a2.34,2.34,0,0,0-2.34,2.34V29.16A2.34,2.34,0,0,0,6.22,31.5H25.78a2.34,2.34,0,0,0,2.34-2.34V15.68A2.34,2.34,0,0,0,25.78,13.34ZM17.85,26h-3.7l.8-4a1.93,1.93,0,1,1,2.1,0ZM22,13.34H10V10A6,6,0,0,1,22,10Z"/><path class="cls-1" d="M25.78,13.34h-.25V10A9.53,9.53,0,0,0,6.47,10v3.31H6.22a2.34,2.34,0,0,0-2.34,2.34V29.16A2.34,2.34,0,0,0,6.22,31.5H25.78a2.34,2.34,0,0,0,2.34-2.34V15.68A2.34,2.34,0,0,0,25.78,13.34ZM17.85,26h-3.7l.8-4a1.93,1.93,0,1,1,2.1,0ZM22,13.34H10V10A6,6,0,0,1,22,10Z"/></svg>